<svg id="about" xmlns="http://www.w3.org/2000/svg" width="107.85" height="149.5" viewBox="0 0 107.85 149.5">
                    <path id="Caminho_1" data-name="Caminho 1" d="M107.85,53.925A53.925,53.925,0,0,1,15.794,92.056,53.925,53.925,0,0,1,92.056,15.794,53.573,53.573,0,0,1,107.85,53.925Z" transform="translate(0 0)" fill="#005e86"/>
                    <path id="Caminho_2" data-name="Caminho 2" d="M297.3,53.925a53.925,53.925,0,0,1-53.925,53.925q-1.694,0-3.37-.1a53.927,53.927,0,0,0,34.761-91.953A53.531,53.531,0,0,0,240,.1q1.678-.1,3.37-.1A53.925,53.925,0,0,1,297.3,53.925Z" transform="translate(-189.445 0)" fill="#005e86"/>
                    <path id="Caminho_3" data-name="Caminho 3" d="M192.852,153.3a3.37,3.37,0,0,1-3.37-3.37A31.64,31.64,0,0,1,198.81,127.4a19.8,19.8,0,0,0,5.838-14.095,10.581,10.581,0,0,0-10.57-10.57h-.768a10.581,10.581,0,0,0-10.57,10.57v1.227a3.37,3.37,0,0,1-6.741,0V113.31A17.33,17.33,0,0,1,193.31,96h.768a17.33,17.33,0,0,1,17.31,17.31,26.5,26.5,0,0,1-7.812,18.861,24.943,24.943,0,0,0-7.354,17.754A3.37,3.37,0,0,1,192.852,153.3Z" transform="translate(-138.926 -75.778)" fill="#8de1fe"/>
                    <path id="Caminho_4" data-name="Caminho 4" d="M243.386,406.741a3.37,3.37,0,0,1,0-6.741h0a3.37,3.37,0,0,1,0,6.741Z" transform="translate(-189.457 -315.742)" fill="#8de1fe"/>
                    <text id="Ajuda" transform="translate(53.851 143.5)" fill="#fff" font-size="24" font-family="Montserrat-Regular, Montserrat"><tspan x="-35.184" y="0">Ajuda</tspan></text>
                  </svg>  