<svg xmlns="http://www.w3.org/2000/svg" width="162" height="149.5" viewBox="0 0 162 149.5">
  <g id="Grupo_145" data-name="Grupo 145" transform="translate(-884.5 -1149)">
    <circle id="Elipse_1" data-name="Elipse 1" cx="53.806" cy="53.806" r="53.806" transform="translate(911.694 1149)" fill="#02aad5"/>
    <text id="Candidaturas" transform="translate(965.5 1292.5)" fill="#005e86" font-size="24" font-family="Montserrat-Regular, Montserrat"><tspan x="-80.94" y="0">Candidaturas</tspan></text>
    <path id="Subtração_5" data-name="Subtração 5" d="M41,59H5a5.006,5.006,0,0,1-5-5V5A5.006,5.006,0,0,1,5,0H41a5.006,5.006,0,0,1,5,5V54A5.006,5.006,0,0,1,41,59ZM16.708,46.607v4.855H37.853V46.607H16.708Zm-7.008,0v4.855h4.473V46.607Zm7.008-9.173v4.855H37.853V37.435H16.708Zm-7.008,0v4.855h4.473V37.435Zm7.008-9.173v4.855H37.853V28.262Zm-7.008,0v4.855h4.473V28.262Z" transform="translate(942.5 1175)" fill="#fff"/>
  </g>
</svg>