<svg xmlns="http://www.w3.org/2000/svg" width="132" height="149.5" viewBox="0 0 132 149.5">
  <g id="Grupo_144" data-name="Grupo 144" transform="translate(-291.5 -1149)">
    <path id="Uni達o_6" data-name="Uni達o 6" d="M-4032.3,3174.7a54,54,0,0,1-38.432-15.918,54,54,0,0,1-15.918-38.432,54,54,0,0,1,15.918-38.432A54,54,0,0,1-4032.3,3066a54,54,0,0,1,38.432,15.919,54,54,0,0,1,15.92,38.432,54,54,0,0,1-15.92,38.432A53.994,53.994,0,0,1-4032.3,3174.7Z" transform="translate(4389.299 -1917)" fill="#02aad5"/>
    <path id="Uni達o_1" data-name="Uni達o 1" d="M-4070.137,3160.692h-14.013v-6.369h4.459v-25.477h-4.247v-6.369h23.353v31.846h4.034v6.369Zm0-44.585a9.564,9.564,0,0,1-9.554-9.554,9.565,9.565,0,0,1,9.554-9.554,9.565,9.565,0,0,1,9.553,9.554A9.564,9.564,0,0,1-4070.137,3116.107Z" transform="translate(4427.138 -1926.557)" fill="#fff"/>
    <text id="Saber_Mais" data-name="Saber Mais" transform="translate(357.5 1292.5)" fill="#005e86" font-size="24" font-family="Montserrat-Regular, Montserrat"><tspan x="-65.436" y="0">Saber Mais</tspan></text>
  </g>
</svg>